<?xml version="1.0" standalone="no"?><!DOCTYPE svg PUBLIC "-//W3C//DTD SVG 1.1//EN" "http://www.w3.org/Graphics/SVG/1.1/DTD/svg11.dtd"><svg t="1581046160034" class="icon" viewBox="0 0 1024 1024" version="1.1" xmlns="http://www.w3.org/2000/svg" p-id="2146" xmlns:xlink="http://www.w3.org/1999/xlink" width="32" height="32"><defs><style type="text/css"></style></defs><path d="M904.32 453.952c-12.736-12.736-33.408-12.736-46.144 0L512 800.128 165.824 453.952c-12.736-12.736-33.408-12.736-46.144 0L73.536 500.096c-12.736 12.736-12.736 33.408 0 46.144l415.36 415.36c12.736 12.736 33.408 12.736 46.144 0l415.36-415.36c12.736-12.736 12.736-33.408 0-46.144L904.32 453.952zM488.896 570.048c12.736 12.736 33.408 12.736 46.144 0l415.36-415.36c12.736-12.736 12.736-33.408 0-46.144L904.32 62.336c-12.736-12.736-33.408-12.736-46.144 0L512 408.512 165.824 62.336c-12.736-12.736-33.408-12.736-46.144 0L73.536 108.48c-12.736 12.736-12.736 33.408 0 46.144L488.896 570.048z" p-id="2147" fill="#bfbfbf"></path></svg>