<?xml version="1.0" standalone="no"?><!DOCTYPE svg PUBLIC "-//W3C//DTD SVG 1.1//EN" "http://www.w3.org/Graphics/SVG/1.1/DTD/svg11.dtd"><svg t="1580962611753" class="icon" viewBox="0 0 1024 1024" version="1.1" xmlns="http://www.w3.org/2000/svg" p-id="1109" width="32" height="32" xmlns:xlink="http://www.w3.org/1999/xlink"><defs><style type="text/css"></style></defs><path d="M256 170.666667h512c8.533333 0 14.933333 2.133333 19.2 8.533333 6.4 6.4 8.533333 12.8 8.533333 19.2 0 8.533333-2.133333 14.933333-8.533333 19.2-6.4 6.4-12.8 8.533333-19.2 8.533333h-512c-8.533333 0-14.933333-2.133333-19.2-8.533333s-8.533333-12.8-8.533333-19.2c0-8.533333 2.133333-14.933333 8.533333-19.2s10.666667-8.533333 19.2-8.533333z m313.6 398.933333v170.666667l-113.066667 113.066666v-283.733333l-198.4-283.733333h512l-200.533333 283.733333z" p-id="1110" fill="#ffffff"></path></svg>